<svg width="40" height="33" viewBox="0 0 40 33" fill="none" xmlns="http://www.w3.org/2000/svg">
<path d="M38.3333 2.35169C36.5 3.25002 34.7033 3.61486 32.8333 4.16669C30.7782 1.84752 27.7312 1.71919 24.8033 2.81552C21.8755 3.91186 19.9578 6.59219 20 9.66669V11.5C14.0508 11.6522 8.75249 8.94252 5.33332 4.16669C5.33332 4.16669 -2.33368 17.7939 12.6667 24.3334C9.23466 26.6195 5.81182 28.1614 1.66666 28C7.73132 31.3055 14.3405 32.4422 20.0623 30.7812C26.6257 28.8745 32.0193 23.9557 34.0892 16.5875C34.7066 14.3466 35.0132 12.0314 35.0003 9.70703C34.9967 9.25052 37.7687 4.62502 38.3333 2.34986V2.35169Z" fill="#0F172A" stroke="#CBD5E1" stroke-width="2.75" stroke-linecap="round" stroke-linejoin="round"/>
</svg>
