<svg width="338" height="47" viewBox="0 0 338 47" fill="none" xmlns="http://www.w3.org/2000/svg">
<path d="M0.046875 1.875H12.7734C15.3828 1.875 17.625 2.26563 19.5 3.04688C21.3906 3.82812 22.8438 4.98438 23.8594 6.51562C24.875 8.04688 25.3828 9.92969 25.3828 12.1641C25.3828 13.9922 25.0703 15.5625 24.4453 16.875C23.8359 18.1719 22.9688 19.2578 21.8438 20.1328C20.7344 20.9922 19.4297 21.6797 17.9297 22.1953L15.7031 23.3672H4.64062L4.59375 17.8828H12.8203C14.0547 17.8828 15.0781 17.6641 15.8906 17.2266C16.7031 16.7891 17.3125 16.1797 17.7188 15.3984C18.1406 14.6172 18.3516 13.7109 18.3516 12.6797C18.3516 11.5859 18.1484 10.6406 17.7422 9.84375C17.3359 9.04688 16.7188 8.4375 15.8906 8.01562C15.0625 7.59375 14.0234 7.38281 12.7734 7.38281H7.07812V36H0.046875V1.875ZM19.125 36L11.3438 20.7891L18.7734 20.7422L26.6484 35.6719V36H19.125ZM42.0469 36.4688C40.0781 36.4688 38.3125 36.1562 36.75 35.5312C35.1875 34.8906 33.8594 34.0078 32.7656 32.8828C31.6875 31.7578 30.8594 30.4531 30.2812 28.9688C29.7031 27.4688 29.4141 25.875 29.4141 24.1875V23.25C29.4141 21.3281 29.6875 19.5703 30.2344 17.9766C30.7812 16.3828 31.5625 15 32.5781 13.8281C33.6094 12.6562 34.8594 11.7578 36.3281 11.1328C37.7969 10.4922 39.4531 10.1719 41.2969 10.1719C43.0938 10.1719 44.6875 10.4688 46.0781 11.0625C47.4688 11.6562 48.6328 12.5 49.5703 13.5938C50.5234 14.6875 51.2422 16 51.7266 17.5312C52.2109 19.0469 52.4531 20.7344 52.4531 22.5938V25.4062H32.2969V20.9062H45.8203V20.3906C45.8203 19.4531 45.6484 18.6172 45.3047 17.8828C44.9766 17.1328 44.4766 16.5391 43.8047 16.1016C43.1328 15.6641 42.2734 15.4453 41.2266 15.4453C40.3359 15.4453 39.5703 15.6406 38.9297 16.0312C38.2891 16.4219 37.7656 16.9688 37.3594 17.6719C36.9688 18.375 36.6719 19.2031 36.4688 20.1562C36.2812 21.0938 36.1875 22.125 36.1875 23.25V24.1875C36.1875 25.2031 36.3281 26.1406 36.6094 27C36.9062 27.8594 37.3203 28.6016 37.8516 29.2266C38.3984 29.8516 39.0547 30.3359 39.8203 30.6797C40.6016 31.0234 41.4844 31.1953 42.4688 31.1953C43.6875 31.1953 44.8203 30.9609 45.8672 30.4922C46.9297 30.0078 47.8438 29.2812 48.6094 28.3125L51.8906 31.875C51.3594 32.6406 50.6328 33.375 49.7109 34.0781C48.8047 34.7812 47.7109 35.3594 46.4297 35.8125C45.1484 36.25 43.6875 36.4688 42.0469 36.4688ZM66.7734 31.1953C67.6016 31.1953 68.3359 31.0391 68.9766 30.7266C69.6172 30.3984 70.1172 29.9453 70.4766 29.3672C70.8516 28.7734 71.0469 28.0781 71.0625 27.2812H77.4141C77.3984 29.0625 76.9219 30.6484 75.9844 32.0391C75.0469 33.4141 73.7891 34.5 72.2109 35.2969C70.6328 36.0781 68.8672 36.4688 66.9141 36.4688C64.9453 36.4688 63.2266 36.1406 61.7578 35.4844C60.3047 34.8281 59.0938 33.9219 58.125 32.7656C57.1562 31.5938 56.4297 30.2344 55.9453 28.6875C55.4609 27.125 55.2188 25.4531 55.2188 23.6719V22.9922C55.2188 21.1953 55.4609 19.5234 55.9453 17.9766C56.4297 16.4141 57.1562 15.0547 58.125 13.8984C59.0938 12.7266 60.3047 11.8125 61.7578 11.1562C63.2109 10.5 64.9141 10.1719 66.8672 10.1719C68.9453 10.1719 70.7656 10.5703 72.3281 11.3672C73.9062 12.1641 75.1406 13.3047 76.0312 14.7891C76.9375 16.2578 77.3984 18 77.4141 20.0156H71.0625C71.0469 19.1719 70.8672 18.4062 70.5234 17.7188C70.1953 17.0312 69.7109 16.4844 69.0703 16.0781C68.4453 15.6562 67.6719 15.4453 66.75 15.4453C65.7656 15.4453 64.9609 15.6562 64.3359 16.0781C63.7109 16.4844 63.2266 17.0469 62.8828 17.7656C62.5391 18.4688 62.2969 19.2734 62.1562 20.1797C62.0312 21.0703 61.9688 22.0078 61.9688 22.9922V23.6719C61.9688 24.6562 62.0312 25.6016 62.1562 26.5078C62.2812 27.4141 62.5156 28.2188 62.8594 28.9219C63.2188 29.625 63.7109 30.1797 64.3359 30.5859C64.9609 30.9922 65.7734 31.1953 66.7734 31.1953ZM93 36.4688C91.0312 36.4688 89.2656 36.1562 87.7031 35.5312C86.1406 34.8906 84.8125 34.0078 83.7188 32.8828C82.6406 31.7578 81.8125 30.4531 81.2344 28.9688C80.6562 27.4688 80.3672 25.875 80.3672 24.1875V23.25C80.3672 21.3281 80.6406 19.5703 81.1875 17.9766C81.7344 16.3828 82.5156 15 83.5312 13.8281C84.5625 12.6562 85.8125 11.7578 87.2812 11.1328C88.75 10.4922 90.4062 10.1719 92.25 10.1719C94.0469 10.1719 95.6406 10.4688 97.0312 11.0625C98.4219 11.6562 99.5859 12.5 100.523 13.5938C101.477 14.6875 102.195 16 102.68 17.5312C103.164 19.0469 103.406 20.7344 103.406 22.5938V25.4062H83.25V20.9062H96.7734V20.3906C96.7734 19.4531 96.6016 18.6172 96.2578 17.8828C95.9297 17.1328 95.4297 16.5391 94.7578 16.1016C94.0859 15.6641 93.2266 15.4453 92.1797 15.4453C91.2891 15.4453 90.5234 15.6406 89.8828 16.0312C89.2422 16.4219 88.7188 16.9688 88.3125 17.6719C87.9219 18.375 87.625 19.2031 87.4219 20.1562C87.2344 21.0938 87.1406 22.125 87.1406 23.25V24.1875C87.1406 25.2031 87.2812 26.1406 87.5625 27C87.8594 27.8594 88.2734 28.6016 88.8047 29.2266C89.3516 29.8516 90.0078 30.3359 90.7734 30.6797C91.5547 31.0234 92.4375 31.1953 93.4219 31.1953C94.6406 31.1953 95.7734 30.9609 96.8203 30.4922C97.8828 30.0078 98.7969 29.2812 99.5625 28.3125L102.844 31.875C102.312 32.6406 101.586 33.375 100.664 34.0781C99.7578 34.7812 98.6641 35.3594 97.3828 35.8125C96.1016 36.25 94.6406 36.4688 93 36.4688ZM113.859 16.0547V36H107.109V10.6406H113.438L113.859 16.0547ZM112.875 22.4297H111.047C111.047 20.5547 111.289 18.8672 111.773 17.3672C112.258 15.8516 112.938 14.5625 113.812 13.5C114.688 12.4219 115.727 11.6016 116.93 11.0391C118.148 10.4609 119.508 10.1719 121.008 10.1719C122.195 10.1719 123.281 10.3438 124.266 10.6875C125.25 11.0312 126.094 11.5781 126.797 12.3281C127.516 13.0781 128.062 14.0703 128.438 15.3047C128.828 16.5391 129.023 18.0469 129.023 19.8281V36H122.227V19.8047C122.227 18.6797 122.07 17.8047 121.758 17.1797C121.445 16.5547 120.984 16.1172 120.375 15.8672C119.781 15.6016 119.047 15.4688 118.172 15.4688C117.266 15.4688 116.477 15.6484 115.805 16.0078C115.148 16.3672 114.602 16.8672 114.164 17.5078C113.742 18.1328 113.422 18.8672 113.203 19.7109C112.984 20.5547 112.875 21.4609 112.875 22.4297ZM146.578 10.6406V15.4219H131.812V10.6406H146.578ZM135.469 4.38281H142.219V28.3594C142.219 29.0938 142.312 29.6562 142.5 30.0469C142.703 30.4375 143 30.7109 143.391 30.8672C143.781 31.0078 144.273 31.0781 144.867 31.0781C145.289 31.0781 145.664 31.0625 145.992 31.0312C146.336 30.9844 146.625 30.9375 146.859 30.8906L146.883 35.8594C146.305 36.0469 145.68 36.1953 145.008 36.3047C144.336 36.4141 143.594 36.4688 142.781 36.4688C141.297 36.4688 140 36.2266 138.891 35.7422C137.797 35.2422 136.953 34.4453 136.359 33.3516C135.766 32.2578 135.469 30.8203 135.469 29.0391V4.38281Z" fill="#F8FAFC"/>
<path d="M176.086 23.8359H167.391V18.3516H176.086C177.43 18.3516 178.523 18.1328 179.367 17.6953C180.211 17.2422 180.828 16.6172 181.219 15.8203C181.609 15.0234 181.805 14.125 181.805 13.125C181.805 12.1094 181.609 11.1641 181.219 10.2891C180.828 9.41406 180.211 8.71094 179.367 8.17969C178.523 7.64844 177.43 7.38281 176.086 7.38281H169.828V36H162.797V1.875H176.086C178.758 1.875 181.047 2.35938 182.953 3.32812C184.875 4.28125 186.344 5.60156 187.359 7.28906C188.375 8.97656 188.883 10.9062 188.883 13.0781C188.883 15.2812 188.375 17.1875 187.359 18.7969C186.344 20.4062 184.875 21.6484 182.953 22.5234C181.047 23.3984 178.758 23.8359 176.086 23.8359ZM200.062 16.1719V36H193.312V10.6406H199.664L200.062 16.1719ZM207.703 10.4766L207.586 16.7344C207.258 16.6875 206.859 16.6484 206.391 16.6172C205.938 16.5703 205.523 16.5469 205.148 16.5469C204.195 16.5469 203.367 16.6719 202.664 16.9219C201.977 17.1562 201.398 17.5078 200.93 17.9766C200.477 18.4453 200.133 19.0156 199.898 19.6875C199.68 20.3594 199.555 21.125 199.523 21.9844L198.164 21.5625C198.164 19.9219 198.328 18.4141 198.656 17.0391C198.984 15.6484 199.461 14.4375 200.086 13.4062C200.727 12.375 201.508 11.5781 202.43 11.0156C203.352 10.4531 204.406 10.1719 205.594 10.1719C205.969 10.1719 206.352 10.2031 206.742 10.2656C207.133 10.3125 207.453 10.3828 207.703 10.4766ZM209.109 23.5781V23.0859C209.109 21.2266 209.375 19.5156 209.906 17.9531C210.438 16.375 211.211 15.0078 212.227 13.8516C213.242 12.6953 214.492 11.7969 215.977 11.1562C217.461 10.5 219.164 10.1719 221.086 10.1719C223.008 10.1719 224.719 10.5 226.219 11.1562C227.719 11.7969 228.977 12.6953 229.992 13.8516C231.023 15.0078 231.805 16.375 232.336 17.9531C232.867 19.5156 233.133 21.2266 233.133 23.0859V23.5781C233.133 25.4219 232.867 27.1328 232.336 28.7109C231.805 30.2734 231.023 31.6406 229.992 32.8125C228.977 33.9688 227.727 34.8672 226.242 35.5078C224.758 36.1484 223.055 36.4688 221.133 36.4688C219.211 36.4688 217.5 36.1484 216 35.5078C214.516 34.8672 213.258 33.9688 212.227 32.8125C211.211 31.6406 210.438 30.2734 209.906 28.7109C209.375 27.1328 209.109 25.4219 209.109 23.5781ZM215.859 23.0859V23.5781C215.859 24.6406 215.953 25.6328 216.141 26.5547C216.328 27.4766 216.625 28.2891 217.031 28.9922C217.453 29.6797 218 30.2188 218.672 30.6094C219.344 31 220.164 31.1953 221.133 31.1953C222.07 31.1953 222.875 31 223.547 30.6094C224.219 30.2188 224.758 29.6797 225.164 28.9922C225.57 28.2891 225.867 27.4766 226.055 26.5547C226.258 25.6328 226.359 24.6406 226.359 23.5781V23.0859C226.359 22.0547 226.258 21.0859 226.055 20.1797C225.867 19.2578 225.562 18.4453 225.141 17.7422C224.734 17.0234 224.195 16.4609 223.523 16.0547C222.852 15.6484 222.039 15.4453 221.086 15.4453C220.133 15.4453 219.32 15.6484 218.648 16.0547C217.992 16.4609 217.453 17.0234 217.031 17.7422C216.625 18.4453 216.328 19.2578 216.141 20.1797C215.953 21.0859 215.859 22.0547 215.859 23.0859ZM237.656 10.6406H244.43V37.5234C244.43 39.3984 244.086 40.9844 243.398 42.2812C242.711 43.5781 241.719 44.5625 240.422 45.2344C239.125 45.9062 237.555 46.2422 235.711 46.2422C235.133 46.2422 234.57 46.2109 234.023 46.1484C233.461 46.0859 232.883 45.9844 232.289 45.8438L232.312 40.6641C232.688 40.7266 233.055 40.7734 233.414 40.8047C233.758 40.8516 234.109 40.875 234.469 40.875C235.172 40.875 235.758 40.7578 236.227 40.5234C236.695 40.2891 237.047 39.9219 237.281 39.4219C237.531 38.9375 237.656 38.3047 237.656 37.5234V10.6406ZM237.117 4.03125C237.117 3.04688 237.461 2.23437 238.148 1.59375C238.852 0.953125 239.773 0.632812 240.914 0.632812C242.07 0.632812 242.992 0.953125 243.68 1.59375C244.367 2.23437 244.711 3.04688 244.711 4.03125C244.711 5.01562 244.367 5.82813 243.68 6.46875C242.992 7.10937 242.07 7.42969 240.914 7.42969C239.773 7.42969 238.852 7.10937 238.148 6.46875C237.461 5.82813 237.117 5.01562 237.117 4.03125ZM261.469 36.4688C259.5 36.4688 257.734 36.1562 256.172 35.5312C254.609 34.8906 253.281 34.0078 252.188 32.8828C251.109 31.7578 250.281 30.4531 249.703 28.9688C249.125 27.4688 248.836 25.875 248.836 24.1875V23.25C248.836 21.3281 249.109 19.5703 249.656 17.9766C250.203 16.3828 250.984 15 252 13.8281C253.031 12.6562 254.281 11.7578 255.75 11.1328C257.219 10.4922 258.875 10.1719 260.719 10.1719C262.516 10.1719 264.109 10.4688 265.5 11.0625C266.891 11.6562 268.055 12.5 268.992 13.5938C269.945 14.6875 270.664 16 271.148 17.5312C271.633 19.0469 271.875 20.7344 271.875 22.5938V25.4062H251.719V20.9062H265.242V20.3906C265.242 19.4531 265.07 18.6172 264.727 17.8828C264.398 17.1328 263.898 16.5391 263.227 16.1016C262.555 15.6641 261.695 15.4453 260.648 15.4453C259.758 15.4453 258.992 15.6406 258.352 16.0312C257.711 16.4219 257.188 16.9688 256.781 17.6719C256.391 18.375 256.094 19.2031 255.891 20.1562C255.703 21.0938 255.609 22.125 255.609 23.25V24.1875C255.609 25.2031 255.75 26.1406 256.031 27C256.328 27.8594 256.742 28.6016 257.273 29.2266C257.82 29.8516 258.477 30.3359 259.242 30.6797C260.023 31.0234 260.906 31.1953 261.891 31.1953C263.109 31.1953 264.242 30.9609 265.289 30.4922C266.352 30.0078 267.266 29.2812 268.031 28.3125L271.312 31.875C270.781 32.6406 270.055 33.375 269.133 34.0781C268.227 34.7812 267.133 35.3594 265.852 35.8125C264.57 36.25 263.109 36.4688 261.469 36.4688ZM286.195 31.1953C287.023 31.1953 287.758 31.0391 288.398 30.7266C289.039 30.3984 289.539 29.9453 289.898 29.3672C290.273 28.7734 290.469 28.0781 290.484 27.2812H296.836C296.82 29.0625 296.344 30.6484 295.406 32.0391C294.469 33.4141 293.211 34.5 291.633 35.2969C290.055 36.0781 288.289 36.4688 286.336 36.4688C284.367 36.4688 282.648 36.1406 281.18 35.4844C279.727 34.8281 278.516 33.9219 277.547 32.7656C276.578 31.5938 275.852 30.2344 275.367 28.6875C274.883 27.125 274.641 25.4531 274.641 23.6719V22.9922C274.641 21.1953 274.883 19.5234 275.367 17.9766C275.852 16.4141 276.578 15.0547 277.547 13.8984C278.516 12.7266 279.727 11.8125 281.18 11.1562C282.633 10.5 284.336 10.1719 286.289 10.1719C288.367 10.1719 290.188 10.5703 291.75 11.3672C293.328 12.1641 294.562 13.3047 295.453 14.7891C296.359 16.2578 296.82 18 296.836 20.0156H290.484C290.469 19.1719 290.289 18.4062 289.945 17.7188C289.617 17.0312 289.133 16.4844 288.492 16.0781C287.867 15.6562 287.094 15.4453 286.172 15.4453C285.188 15.4453 284.383 15.6562 283.758 16.0781C283.133 16.4844 282.648 17.0469 282.305 17.7656C281.961 18.4688 281.719 19.2734 281.578 20.1797C281.453 21.0703 281.391 22.0078 281.391 22.9922V23.6719C281.391 24.6562 281.453 25.6016 281.578 26.5078C281.703 27.4141 281.938 28.2188 282.281 28.9219C282.641 29.625 283.133 30.1797 283.758 30.5859C284.383 30.9922 285.195 31.1953 286.195 31.1953ZM313.172 10.6406V15.4219H298.406V10.6406H313.172ZM302.062 4.38281H308.812V28.3594C308.812 29.0938 308.906 29.6562 309.094 30.0469C309.297 30.4375 309.594 30.7109 309.984 30.8672C310.375 31.0078 310.867 31.0781 311.461 31.0781C311.883 31.0781 312.258 31.0625 312.586 31.0312C312.93 30.9844 313.219 30.9375 313.453 30.8906L313.477 35.8594C312.898 36.0469 312.273 36.1953 311.602 36.3047C310.93 36.4141 310.188 36.4688 309.375 36.4688C307.891 36.4688 306.594 36.2266 305.484 35.7422C304.391 35.2422 303.547 34.4453 302.953 33.3516C302.359 32.2578 302.062 30.8203 302.062 29.0391V4.38281ZM330.727 28.9922C330.727 28.5078 330.586 28.0703 330.305 27.6797C330.023 27.2891 329.5 26.9297 328.734 26.6016C327.984 26.2578 326.898 25.9453 325.477 25.6641C324.195 25.3828 323 25.0312 321.891 24.6094C320.797 24.1719 319.844 23.6484 319.031 23.0391C318.234 22.4297 317.609 21.7109 317.156 20.8828C316.703 20.0391 316.477 19.0781 316.477 18C316.477 16.9375 316.703 15.9375 317.156 15C317.625 14.0625 318.289 13.2344 319.148 12.5156C320.023 11.7812 321.086 11.2109 322.336 10.8047C323.602 10.3828 325.023 10.1719 326.602 10.1719C328.805 10.1719 330.695 10.5234 332.273 11.2266C333.867 11.9297 335.086 12.8984 335.93 14.1328C336.789 15.3516 337.219 16.7422 337.219 18.3047H330.469C330.469 17.6484 330.328 17.0625 330.047 16.5469C329.781 16.0156 329.359 15.6016 328.781 15.3047C328.219 14.9922 327.484 14.8359 326.578 14.8359C325.828 14.8359 325.18 14.9688 324.633 15.2344C324.086 15.4844 323.664 15.8281 323.367 16.2656C323.086 16.6875 322.945 17.1562 322.945 17.6719C322.945 18.0625 323.023 18.4141 323.18 18.7266C323.352 19.0234 323.625 19.2969 324 19.5469C324.375 19.7969 324.859 20.0312 325.453 20.25C326.062 20.4531 326.812 20.6406 327.703 20.8125C329.531 21.1875 331.164 21.6797 332.602 22.2891C334.039 22.8828 335.18 23.6953 336.023 24.7266C336.867 25.7422 337.289 27.0781 337.289 28.7344C337.289 29.8594 337.039 30.8906 336.539 31.8281C336.039 32.7656 335.32 33.5859 334.383 34.2891C333.445 34.9766 332.32 35.5156 331.008 35.9062C329.711 36.2812 328.25 36.4688 326.625 36.4688C324.266 36.4688 322.266 36.0469 320.625 35.2031C319 34.3594 317.766 33.2891 316.922 31.9922C316.094 30.6797 315.68 29.3359 315.68 27.9609H322.078C322.109 28.8828 322.344 29.625 322.781 30.1875C323.234 30.75 323.805 31.1562 324.492 31.4062C325.195 31.6562 325.953 31.7812 326.766 31.7812C327.641 31.7812 328.367 31.6641 328.945 31.4297C329.523 31.1797 329.961 30.8516 330.258 30.4453C330.57 30.0234 330.727 29.5391 330.727 28.9922Z" fill="#16B8F3"/>
</svg>
