<svg width="266" height="36" viewBox="0 0 266 36" fill="none" xmlns="http://www.w3.org/2000/svg">
<path d="M21.9844 29.5156V35H4.80469V29.5156H21.9844ZM7.07812 0.875V35H0.046875V0.875H7.07812ZM39.2812 29.2812V17.9844C39.2812 17.1719 39.1484 16.4766 38.8828 15.8984C38.6172 15.3047 38.2031 14.8438 37.6406 14.5156C37.0938 14.1875 36.3828 14.0234 35.5078 14.0234C34.7578 14.0234 34.1094 14.1562 33.5625 14.4219C33.0156 14.6719 32.5938 15.0391 32.2969 15.5234C32 15.9922 31.8516 16.5469 31.8516 17.1875H25.1016C25.1016 16.1094 25.3516 15.0859 25.8516 14.1172C26.3516 13.1484 27.0781 12.2969 28.0312 11.5625C28.9844 10.8125 30.1172 10.2266 31.4297 9.80469C32.7578 9.38281 34.2422 9.17188 35.8828 9.17188C37.8516 9.17188 39.6016 9.5 41.1328 10.1562C42.6641 10.8125 43.8672 11.7969 44.7422 13.1094C45.6328 14.4219 46.0781 16.0625 46.0781 18.0312V28.8828C46.0781 30.2734 46.1641 31.4141 46.3359 32.3047C46.5078 33.1797 46.7578 33.9453 47.0859 34.6016V35H40.2656C39.9375 34.3125 39.6875 33.4531 39.5156 32.4219C39.3594 31.375 39.2812 30.3281 39.2812 29.2812ZM40.1719 19.5547L40.2188 23.375H36.4453C35.5547 23.375 34.7812 23.4766 34.125 23.6797C33.4688 23.8828 32.9297 24.1719 32.5078 24.5469C32.0859 24.9062 31.7734 25.3281 31.5703 25.8125C31.3828 26.2969 31.2891 26.8281 31.2891 27.4062C31.2891 27.9844 31.4219 28.5078 31.6875 28.9766C31.9531 29.4297 32.3359 29.7891 32.8359 30.0547C33.3359 30.3047 33.9219 30.4297 34.5938 30.4297C35.6094 30.4297 36.4922 30.2266 37.2422 29.8203C37.9922 29.4141 38.5703 28.9141 38.9766 28.3203C39.3984 27.7266 39.6172 27.1641 39.6328 26.6328L41.4141 29.4922C41.1641 30.1328 40.8203 30.7969 40.3828 31.4844C39.9609 32.1719 39.4219 32.8203 38.7656 33.4297C38.1094 34.0234 37.3203 34.5156 36.3984 34.9062C35.4766 35.2812 34.3828 35.4688 33.1172 35.4688C31.5078 35.4688 30.0469 35.1484 28.7344 34.5078C27.4375 33.8516 26.4062 32.9531 25.6406 31.8125C24.8906 30.6562 24.5156 29.3438 24.5156 27.875C24.5156 26.5469 24.7656 25.3672 25.2656 24.3359C25.7656 23.3047 26.5 22.4375 27.4688 21.7344C28.4531 21.0156 29.6797 20.4766 31.1484 20.1172C32.6172 19.7422 34.3203 19.5547 36.2578 19.5547H40.1719ZM63.7031 9.64062V14.4219H48.9375V9.64062H63.7031ZM52.5938 3.38281H59.3438V27.3594C59.3438 28.0938 59.4375 28.6562 59.625 29.0469C59.8281 29.4375 60.125 29.7109 60.5156 29.8672C60.9062 30.0078 61.3984 30.0781 61.9922 30.0781C62.4141 30.0781 62.7891 30.0625 63.1172 30.0312C63.4609 29.9844 63.75 29.9375 63.9844 29.8906L64.0078 34.8594C63.4297 35.0469 62.8047 35.1953 62.1328 35.3047C61.4609 35.4141 60.7188 35.4688 59.9062 35.4688C58.4219 35.4688 57.125 35.2266 56.0156 34.7422C54.9219 34.2422 54.0781 33.4453 53.4844 32.3516C52.8906 31.2578 52.5938 29.8203 52.5938 28.0391V3.38281ZM79.2188 35.4688C77.25 35.4688 75.4844 35.1562 73.9219 34.5312C72.3594 33.8906 71.0312 33.0078 69.9375 31.8828C68.8594 30.7578 68.0312 29.4531 67.4531 27.9688C66.875 26.4688 66.5859 24.875 66.5859 23.1875V22.25C66.5859 20.3281 66.8594 18.5703 67.4062 16.9766C67.9531 15.3828 68.7344 14 69.75 12.8281C70.7812 11.6562 72.0312 10.7578 73.5 10.1328C74.9688 9.49219 76.625 9.17188 78.4688 9.17188C80.2656 9.17188 81.8594 9.46875 83.25 10.0625C84.6406 10.6562 85.8047 11.5 86.7422 12.5938C87.6953 13.6875 88.4141 15 88.8984 16.5312C89.3828 18.0469 89.625 19.7344 89.625 21.5938V24.4062H69.4688V19.9062H82.9922V19.3906C82.9922 18.4531 82.8203 17.6172 82.4766 16.8828C82.1484 16.1328 81.6484 15.5391 80.9766 15.1016C80.3047 14.6641 79.4453 14.4453 78.3984 14.4453C77.5078 14.4453 76.7422 14.6406 76.1016 15.0312C75.4609 15.4219 74.9375 15.9688 74.5312 16.6719C74.1406 17.375 73.8438 18.2031 73.6406 19.1562C73.4531 20.0938 73.3594 21.125 73.3594 22.25V23.1875C73.3594 24.2031 73.5 25.1406 73.7812 26C74.0781 26.8594 74.4922 27.6016 75.0234 28.2266C75.5703 28.8516 76.2266 29.3359 76.9922 29.6797C77.7734 30.0234 78.6562 30.1953 79.6406 30.1953C80.8594 30.1953 81.9922 29.9609 83.0391 29.4922C84.1016 29.0078 85.0156 28.2812 85.7812 27.3125L89.0625 30.875C88.5312 31.6406 87.8047 32.375 86.8828 33.0781C85.9766 33.7812 84.8828 34.3594 83.6016 34.8125C82.3203 35.25 80.8594 35.4688 79.2188 35.4688ZM107.18 27.9922C107.18 27.5078 107.039 27.0703 106.758 26.6797C106.477 26.2891 105.953 25.9297 105.188 25.6016C104.438 25.2578 103.352 24.9453 101.93 24.6641C100.648 24.3828 99.4531 24.0312 98.3438 23.6094C97.25 23.1719 96.2969 22.6484 95.4844 22.0391C94.6875 21.4297 94.0625 20.7109 93.6094 19.8828C93.1562 19.0391 92.9297 18.0781 92.9297 17C92.9297 15.9375 93.1562 14.9375 93.6094 14C94.0781 13.0625 94.7422 12.2344 95.6016 11.5156C96.4766 10.7812 97.5391 10.2109 98.7891 9.80469C100.055 9.38281 101.477 9.17188 103.055 9.17188C105.258 9.17188 107.148 9.52344 108.727 10.2266C110.32 10.9297 111.539 11.8984 112.383 13.1328C113.242 14.3516 113.672 15.7422 113.672 17.3047H106.922C106.922 16.6484 106.781 16.0625 106.5 15.5469C106.234 15.0156 105.812 14.6016 105.234 14.3047C104.672 13.9922 103.938 13.8359 103.031 13.8359C102.281 13.8359 101.633 13.9688 101.086 14.2344C100.539 14.4844 100.117 14.8281 99.8203 15.2656C99.5391 15.6875 99.3984 16.1562 99.3984 16.6719C99.3984 17.0625 99.4766 17.4141 99.6328 17.7266C99.8047 18.0234 100.078 18.2969 100.453 18.5469C100.828 18.7969 101.312 19.0312 101.906 19.25C102.516 19.4531 103.266 19.6406 104.156 19.8125C105.984 20.1875 107.617 20.6797 109.055 21.2891C110.492 21.8828 111.633 22.6953 112.477 23.7266C113.32 24.7422 113.742 26.0781 113.742 27.7344C113.742 28.8594 113.492 29.8906 112.992 30.8281C112.492 31.7656 111.773 32.5859 110.836 33.2891C109.898 33.9766 108.773 34.5156 107.461 34.9062C106.164 35.2812 104.703 35.4688 103.078 35.4688C100.719 35.4688 98.7188 35.0469 97.0781 34.2031C95.4531 33.3594 94.2188 32.2891 93.375 30.9922C92.5469 29.6797 92.1328 28.3359 92.1328 26.9609H98.5312C98.5625 27.8828 98.7969 28.625 99.2344 29.1875C99.6875 29.75 100.258 30.1562 100.945 30.4062C101.648 30.6562 102.406 30.7812 103.219 30.7812C104.094 30.7812 104.82 30.6641 105.398 30.4297C105.977 30.1797 106.414 29.8516 106.711 29.4453C107.023 29.0234 107.18 28.5391 107.18 27.9922ZM130.547 9.64062V14.4219H115.781V9.64062H130.547ZM119.438 3.38281H126.188V27.3594C126.188 28.0938 126.281 28.6562 126.469 29.0469C126.672 29.4375 126.969 29.7109 127.359 29.8672C127.75 30.0078 128.242 30.0781 128.836 30.0781C129.258 30.0781 129.633 30.0625 129.961 30.0312C130.305 29.9844 130.594 29.9375 130.828 29.8906L130.852 34.8594C130.273 35.0469 129.648 35.1953 128.977 35.3047C128.305 35.4141 127.562 35.4688 126.75 35.4688C125.266 35.4688 123.969 35.2266 122.859 34.7422C121.766 34.2422 120.922 33.4453 120.328 32.3516C119.734 31.2578 119.438 29.8203 119.438 28.0391V3.38281Z" fill="#F8FAFC"/>
<path d="M160.055 22.8359H151.359V17.3516H160.055C161.398 17.3516 162.492 17.1328 163.336 16.6953C164.18 16.2422 164.797 15.6172 165.188 14.8203C165.578 14.0234 165.773 13.125 165.773 12.125C165.773 11.1094 165.578 10.1641 165.188 9.28906C164.797 8.41406 164.18 7.71094 163.336 7.17969C162.492 6.64844 161.398 6.38281 160.055 6.38281H153.797V35H146.766V0.875H160.055C162.727 0.875 165.016 1.35938 166.922 2.32812C168.844 3.28125 170.312 4.60156 171.328 6.28906C172.344 7.97656 172.852 9.90625 172.852 12.0781C172.852 14.2812 172.344 16.1875 171.328 17.7969C170.312 19.4062 168.844 20.6484 166.922 21.5234C165.016 22.3984 162.727 22.8359 160.055 22.8359ZM175.875 22.5781V22.0859C175.875 20.2266 176.141 18.5156 176.672 16.9531C177.203 15.375 177.977 14.0078 178.992 12.8516C180.008 11.6953 181.258 10.7969 182.742 10.1562C184.227 9.5 185.93 9.17188 187.852 9.17188C189.773 9.17188 191.484 9.5 192.984 10.1562C194.484 10.7969 195.742 11.6953 196.758 12.8516C197.789 14.0078 198.57 15.375 199.102 16.9531C199.633 18.5156 199.898 20.2266 199.898 22.0859V22.5781C199.898 24.4219 199.633 26.1328 199.102 27.7109C198.57 29.2734 197.789 30.6406 196.758 31.8125C195.742 32.9688 194.492 33.8672 193.008 34.5078C191.523 35.1484 189.82 35.4688 187.898 35.4688C185.977 35.4688 184.266 35.1484 182.766 34.5078C181.281 33.8672 180.023 32.9688 178.992 31.8125C177.977 30.6406 177.203 29.2734 176.672 27.7109C176.141 26.1328 175.875 24.4219 175.875 22.5781ZM182.625 22.0859V22.5781C182.625 23.6406 182.719 24.6328 182.906 25.5547C183.094 26.4766 183.391 27.2891 183.797 27.9922C184.219 28.6797 184.766 29.2188 185.438 29.6094C186.109 30 186.93 30.1953 187.898 30.1953C188.836 30.1953 189.641 30 190.312 29.6094C190.984 29.2188 191.523 28.6797 191.93 27.9922C192.336 27.2891 192.633 26.4766 192.82 25.5547C193.023 24.6328 193.125 23.6406 193.125 22.5781V22.0859C193.125 21.0547 193.023 20.0859 192.82 19.1797C192.633 18.2578 192.328 17.4453 191.906 16.7422C191.5 16.0234 190.961 15.4609 190.289 15.0547C189.617 14.6484 188.805 14.4453 187.852 14.4453C186.898 14.4453 186.086 14.6484 185.414 15.0547C184.758 15.4609 184.219 16.0234 183.797 16.7422C183.391 17.4453 183.094 18.2578 182.906 19.1797C182.719 20.0859 182.625 21.0547 182.625 22.0859ZM217.758 27.9922C217.758 27.5078 217.617 27.0703 217.336 26.6797C217.055 26.2891 216.531 25.9297 215.766 25.6016C215.016 25.2578 213.93 24.9453 212.508 24.6641C211.227 24.3828 210.031 24.0312 208.922 23.6094C207.828 23.1719 206.875 22.6484 206.062 22.0391C205.266 21.4297 204.641 20.7109 204.188 19.8828C203.734 19.0391 203.508 18.0781 203.508 17C203.508 15.9375 203.734 14.9375 204.188 14C204.656 13.0625 205.32 12.2344 206.18 11.5156C207.055 10.7812 208.117 10.2109 209.367 9.80469C210.633 9.38281 212.055 9.17188 213.633 9.17188C215.836 9.17188 217.727 9.52344 219.305 10.2266C220.898 10.9297 222.117 11.8984 222.961 13.1328C223.82 14.3516 224.25 15.7422 224.25 17.3047H217.5C217.5 16.6484 217.359 16.0625 217.078 15.5469C216.812 15.0156 216.391 14.6016 215.812 14.3047C215.25 13.9922 214.516 13.8359 213.609 13.8359C212.859 13.8359 212.211 13.9688 211.664 14.2344C211.117 14.4844 210.695 14.8281 210.398 15.2656C210.117 15.6875 209.977 16.1562 209.977 16.6719C209.977 17.0625 210.055 17.4141 210.211 17.7266C210.383 18.0234 210.656 18.2969 211.031 18.5469C211.406 18.7969 211.891 19.0312 212.484 19.25C213.094 19.4531 213.844 19.6406 214.734 19.8125C216.562 20.1875 218.195 20.6797 219.633 21.2891C221.07 21.8828 222.211 22.6953 223.055 23.7266C223.898 24.7422 224.32 26.0781 224.32 27.7344C224.32 28.8594 224.07 29.8906 223.57 30.8281C223.07 31.7656 222.352 32.5859 221.414 33.2891C220.477 33.9766 219.352 34.5156 218.039 34.9062C216.742 35.2812 215.281 35.4688 213.656 35.4688C211.297 35.4688 209.297 35.0469 207.656 34.2031C206.031 33.3594 204.797 32.2891 203.953 30.9922C203.125 29.6797 202.711 28.3359 202.711 26.9609H209.109C209.141 27.8828 209.375 28.625 209.812 29.1875C210.266 29.75 210.836 30.1562 211.523 30.4062C212.227 30.6562 212.984 30.7812 213.797 30.7812C214.672 30.7812 215.398 30.6641 215.977 30.4297C216.555 30.1797 216.992 29.8516 217.289 29.4453C217.602 29.0234 217.758 28.5391 217.758 27.9922ZM241.125 9.64062V14.4219H226.359V9.64062H241.125ZM230.016 3.38281H236.766V27.3594C236.766 28.0938 236.859 28.6562 237.047 29.0469C237.25 29.4375 237.547 29.7109 237.938 29.8672C238.328 30.0078 238.82 30.0781 239.414 30.0781C239.836 30.0781 240.211 30.0625 240.539 30.0312C240.883 29.9844 241.172 29.9375 241.406 29.8906L241.43 34.8594C240.852 35.0469 240.227 35.1953 239.555 35.3047C238.883 35.4141 238.141 35.4688 237.328 35.4688C235.844 35.4688 234.547 35.2266 233.438 34.7422C232.344 34.2422 231.5 33.4453 230.906 32.3516C230.312 31.2578 230.016 29.8203 230.016 28.0391V3.38281ZM258.68 27.9922C258.68 27.5078 258.539 27.0703 258.258 26.6797C257.977 26.2891 257.453 25.9297 256.688 25.6016C255.938 25.2578 254.852 24.9453 253.43 24.6641C252.148 24.3828 250.953 24.0312 249.844 23.6094C248.75 23.1719 247.797 22.6484 246.984 22.0391C246.188 21.4297 245.562 20.7109 245.109 19.8828C244.656 19.0391 244.43 18.0781 244.43 17C244.43 15.9375 244.656 14.9375 245.109 14C245.578 13.0625 246.242 12.2344 247.102 11.5156C247.977 10.7812 249.039 10.2109 250.289 9.80469C251.555 9.38281 252.977 9.17188 254.555 9.17188C256.758 9.17188 258.648 9.52344 260.227 10.2266C261.82 10.9297 263.039 11.8984 263.883 13.1328C264.742 14.3516 265.172 15.7422 265.172 17.3047H258.422C258.422 16.6484 258.281 16.0625 258 15.5469C257.734 15.0156 257.312 14.6016 256.734 14.3047C256.172 13.9922 255.438 13.8359 254.531 13.8359C253.781 13.8359 253.133 13.9688 252.586 14.2344C252.039 14.4844 251.617 14.8281 251.32 15.2656C251.039 15.6875 250.898 16.1562 250.898 16.6719C250.898 17.0625 250.977 17.4141 251.133 17.7266C251.305 18.0234 251.578 18.2969 251.953 18.5469C252.328 18.7969 252.812 19.0312 253.406 19.25C254.016 19.4531 254.766 19.6406 255.656 19.8125C257.484 20.1875 259.117 20.6797 260.555 21.2891C261.992 21.8828 263.133 22.6953 263.977 23.7266C264.82 24.7422 265.242 26.0781 265.242 27.7344C265.242 28.8594 264.992 29.8906 264.492 30.8281C263.992 31.7656 263.273 32.5859 262.336 33.2891C261.398 33.9766 260.273 34.5156 258.961 34.9062C257.664 35.2812 256.203 35.4688 254.578 35.4688C252.219 35.4688 250.219 35.0469 248.578 34.2031C246.953 33.3594 245.719 32.2891 244.875 30.9922C244.047 29.6797 243.633 28.3359 243.633 26.9609H250.031C250.062 27.8828 250.297 28.625 250.734 29.1875C251.188 29.75 251.758 30.1562 252.445 30.4062C253.148 30.6562 253.906 30.7812 254.719 30.7812C255.594 30.7812 256.32 30.6641 256.898 30.4297C257.477 30.1797 257.914 29.8516 258.211 29.4453C258.523 29.0234 258.68 28.5391 258.68 27.9922Z" fill="#16B8F3"/>
</svg>
